<?xml version="1.0" encoding="UTF-8" standalone="no"?>
<svg width="1114px" height="499px" viewBox="0 0 1114 499" version="1.1" xmlns="http://www.w3.org/2000/svg" xmlns:xlink="http://www.w3.org/1999/xlink">
    <!-- Generator: Sketch 41.1 (35376) - http://www.bohemiancoding.com/sketch -->
    <title>bottom_landscape</title>
    <desc>Created with Sketch.</desc>
    <defs>
        <rect id="path-1" x="0" y="0" width="16" height="12" rx="2"></rect>
        <mask id="mask-2" maskContentUnits="userSpaceOnUse" maskUnits="objectBoundingBox" x="0" y="0" width="16" height="12" fill="white">
            <use xlink:href="#path-1"></use>
        </mask>
    </defs>
    <g id="community_page" stroke="none" stroke-width="1" fill="none" fill-rule="evenodd">
        <g id="community_page2-copy" transform="translate(-45.000000, -1887.000000)" stroke="#8BC34A">
            <g id="bottom_landscape" transform="translate(47.000000, 1887.000000)">
                <g id="Group-2-Copy-2" transform="translate(0.000000, 49.000000)" stroke-width="4">
                    <path d="M968.399573,151.465785 C968.583864,152.508906 968.68,153.582499 968.68,154.678571 C968.68,164.797217 960.486811,173 950.38,173 C946.259617,173 942.45729,171.636648 939.398518,169.335942 C938.084997,169.602782 936.725504,169.742857 935.333333,169.742857 C924.103543,169.742857 915,160.628654 915,149.385714 C915,141.589767 919.377121,134.817348 925.805123,131.39742 C927.203489,122.668599 934.760554,116 943.873333,116 C951.30662,116 957.704789,120.437054 960.569625,126.81002 C961.352818,126.662744 962.160757,126.585714 962.986667,126.585714 C970.173732,126.585714 976,132.418804 976,139.614286 C976,144.876032 972.88448,149.409258 968.399573,151.465785 Z" id="Combined-Shape"></path>
                    <path d="M1104.0738,220.699704 C1104.24423,221.621142 1104.33333,222.5713 1104.33333,223.542373 C1104.33333,232.079385 1097.44705,239 1088.95238,239 C1085.22649,239 1081.81003,237.668589 1079.14835,235.45335 C1078.12809,235.645353 1077.07571,235.745763 1076,235.745763 C1066.61116,235.745763 1059,228.096661 1059,218.661017 C1059,212.055291 1062.73034,206.325177 1068.18944,203.482239 C1069.56956,196.368854 1075.80377,191 1083.28571,191 C1089.52223,191 1094.89183,194.730238 1097.30593,200.091729 C1097.88063,199.997919 1098.47036,199.949153 1099.07143,199.949153 C1105.10711,199.949153 1110,204.866432 1110,210.932203 C1110,215.18628 1107.5934,218.875463 1104.0738,220.699704 Z" id="Combined-Shape-Copy"></path>
                    <g id="Group-3" transform="translate(34.000000, 167.000000)" stroke-linecap="round">
                        <path d="M349.553554,3 L70.5,0.5" id="Path-2"></path>
                        <path d="M148.053554,60.5 L5.68434189e-14,60.5" id="Path-2-Copy-2"></path>
                    </g>
                    <g id="Group-3-Copy" transform="translate(506.000000, 274.000000)" stroke-linecap="round">
                        <path d="M279.553554,3 L0.5,0.5" id="Path-2"></path>
                        <path d="M563.053554,173.5 L284,171" id="Path-2-Copy"></path>
                    </g>
                    <g id="tree" transform="translate(984.000000, 58.000000)">
                        <path d="M62.5644846,102.965986 C86.2366558,98.0912026 104.035774,77.1331481 104.035774,52.0178868 C104.035774,23.2892012 80.7465724,0 52.0178868,0 C23.2892012,0 0,23.2892012 0,52.0178868 C0,78.218247 19.370356,99.8944181 44.5714677,103.5068" id="Oval-3"></path>
                        <polygon id="Path-6" points="42.5 179 47 87 33.5 49.5 54.5 79 82 60 61.5 86.5 67 179"></polygon>
                    </g>
                    <g id="tree">
                        <path d="M52.319601,86.5454325 C72.1154732,82.4480579 87,64.8322998 87,43.7223077 C87,19.5751439 67.5243866,0 43.5,0 C19.4756134,0 0,19.5751439 0,43.7223077 C0,65.7443521 16.1984759,83.9637047 37.272926,87" id="Oval-3"></path>
                        <polygon id="Path-6" points="35.6082474 150 39.4123711 72.5637066 28 41 45.7525773 65.8301158 69 49.8378378 51.6701031 72.1428571 56.3195876 150"></polygon>
                    </g>
                    <g id="bench" transform="translate(93.000000, 67.000000)" stroke-linecap="round">
                        <g id="Group-4">
                            <path d="M88.2808989,0 C88.2808989,0 94.2752809,0.541666667 94.2752809,9.75 L94.2752809,47.1877493" id="Path-7" transform="translate(91.278090, 23.593875) scale(-1, 1) translate(-91.278090, -23.593875) "></path>
                            <path d="M1.08988764,0 C1.08988764,0 7.08426966,0.541666667 7.08426966,9.75 L7.08426966,47.1877493" id="Path-7-Copy"></path>
                            <path d="M0,49.8333333 L95.9163047,49.8333333" id="Path-8"></path>
                            <path d="M8.71910112,14.0833333 L88.2808989,14.0833333" id="Path-8-Copy"></path>
                        </g>
                        <g id="Group-5" transform="translate(13.500000, 62.500000) scale(-1, 1) translate(-13.500000, -62.500000) translate(2.000000, 50.000000)">
                            <path d="M20.8095238,24.4565217 L20.8095238,0.543478261" id="Path-9"></path>
                            <path d="M1.0952381,21.7391304 L1.0952381,0.543478261" id="Path-9-Copy"></path>
                        </g>
                        <g id="Group-5-Copy" transform="translate(70.000000, 50.000000)">
                            <path d="M20.8095238,24.4565217 L20.8095238,0.543478261" id="Path-9"></path>
                            <path d="M1.0952381,21.7391304 L1.0952381,0.543478261" id="Path-9-Copy"></path>
                        </g>
                    </g>
                    <g id="bench-copy" transform="translate(976.000000, 343.000000)" stroke-linecap="round">
                        <g id="Group-4">
                            <path d="M88.2808989,0 C88.2808989,0 94.2752809,0.541666667 94.2752809,9.75 L94.2752809,47.1877493" id="Path-7" transform="translate(91.278090, 23.593875) scale(-1, 1) translate(-91.278090, -23.593875) "></path>
                            <path d="M1.08988764,0 C1.08988764,0 7.08426966,0.541666667 7.08426966,9.75 L7.08426966,47.1877493" id="Path-7-Copy"></path>
                            <path d="M0,49.8333333 L95.9163047,49.8333333" id="Path-8"></path>
                            <path d="M8.71910112,14.0833333 L88.2808989,14.0833333" id="Path-8-Copy"></path>
                        </g>
                        <g id="Group-5" transform="translate(13.500000, 62.500000) scale(-1, 1) translate(-13.500000, -62.500000) translate(2.000000, 50.000000)">
                            <path d="M20.8095238,24.4565217 L20.8095238,0.543478261" id="Path-9"></path>
                            <path d="M1.0952381,21.7391304 L1.0952381,0.543478261" id="Path-9-Copy"></path>
                        </g>
                        <g id="Group-5-Copy" transform="translate(70.000000, 50.000000)">
                            <path d="M20.8095238,24.4565217 L20.8095238,0.543478261" id="Path-9"></path>
                            <path d="M1.0952381,21.7391304 L1.0952381,0.543478261" id="Path-9-Copy"></path>
                        </g>
                    </g>
                </g>
                <g id="Group-3" transform="translate(559.000000, 0.000000)">
                    <g id="Group-7-Copy" transform="translate(53.500000, 126.000000) scale(-1, 1) translate(-53.500000, -126.000000) " stroke-width="4">
                        <path d="M25.7107684,7 C22.349799,8.5266312 20,12.0221431 20,16.090157 C20,21.5632122 24.2532949,26 29.5,26 L29.5,26 C34.7467051,26 39,21.5632122 39,16.090157 C39,13.9628024 38.3573927,11.9920118 37.2636181,10.377484" id="Oval-6"></path>
                        <path d="M41.4390485,6.34605427 C41.4390485,6.34605427 33.1631864,17.5585385 25.4390485,1.06959112 C25.7149106,1.06959112 41.4390485,6.34605427 41.4390485,6.34605427 Z" id="Path-3" transform="translate(33.439049, 5.569591) rotate(-8.000000) translate(-33.439049, -5.569591) "></path>
                        <polyline id="Path-12" stroke-linecap="round" transform="translate(21.114210, 59.272409) scale(1, -1) rotate(-243.000000) translate(-21.114210, -59.272409) " points="34.067679 51.420366 14.4812529 76.3009233 8.1607401 71.3303351 30.3497303 42.2438954"></polyline>
                        <path d="M27.2,27 L26.8,33" id="Path-13"></path>
                        <path d="M35,25 L36,31" id="Path-14"></path>
                        <polyline id="Path-22" stroke-linecap="round" points="37 30 26.5 33.0769231 24.625 33.4615385 22 45"></polyline>
                        <polyline id="Path-23" transform="translate(29.450407, 53.080304) rotate(-1.000000) translate(-29.450407, -53.080304) " points="37.004653 30.2375328 43.2600724 75.7690066 15.640742 75.9230751"></polyline>
                        <g id="Group-9" transform="translate(74.081559, 210.828698) rotate(-18.000000) translate(-74.081559, -210.828698) translate(52.081559, 174.828698)">
                            <path d="M25.7107684,-1.66977543e-13 C22.349799,1.5266312 20,5.02214311 20,9.09015703 C20,14.5632122 24.2532949,19 29.5,19 L29.5,19 C34.7467051,19 39,14.5632122 39,9.09015703 C39,6.96280238 38.3573927,4.99201175 37.2636181,3.37748401" id="Oval-6-Copy"></path>
                            <polyline id="Path-12-Copy-2" stroke-linecap="round" transform="translate(21.114210, 52.272409) scale(1, -1) rotate(-243.000000) translate(-21.114210, -52.272409) " points="34.067679 44.420366 14.4812529 69.3009233 8.1607401 64.3303351 30.3497303 35.2438954"></polyline>
                            <path d="M27.2,20 L26.8,26" id="Path-13-Copy"></path>
                            <path d="M35,18 L36,24" id="Path-14-Copy"></path>
                            <polyline id="Path-22-Copy" stroke-linecap="round" points="37 23 26.5 26.0769231 24.625 26.4615385 22 38"></polyline>
                            <polyline id="Path-23-Copy-2" transform="translate(29.450407, 46.080304) rotate(-1.000000) translate(-29.450407, -46.080304) " points="37.004653 23.2375328 43.2600724 68.7690066 15.640742 68.9230751"></polyline>
                        </g>
                        <polyline id="Path-24" stroke-linecap="round" points="19.6363636 76 5 131 17.8181818 134 28 94.6973684"></polyline>
                        <polyline id="Path-25" stroke-linecap="round" points="27 88.2371795 40.8133333 134 55 130.974359 40.0666667 75"></polyline>
                    </g>
                    <g id="Group-Copy" transform="translate(99.299466, 82.882882) rotate(-16.000000) translate(-99.299466, -82.882882) translate(90.799466, 74.382882)">
                        <path d="M8.58754414,9.2832539 C11.9012526,9.2832539 11.612617,8.75090558 11.612617,5.98948183 C11.612617,3.22805808 11.4951382,-1.27897692e-13 8.18142971,-1.27897692e-13 C4.86772122,-1.27897692e-13 2,0.47168452 2,3.23310827 C2,5.99453202 5.27383565,9.2832539 8.58754414,9.2832539 Z" id="Oval" stroke-width="4"></path>
                        <g id="Group-2" transform="translate(0.141288, 4.879316)" stroke-width="8">
                            <use id="Rectangle-2" mask="url(#mask-2)" xlink:href="#path-1"></use>
                        </g>
                    </g>
                </g>
                <g id="bike" transform="translate(531.000000, 236.000000)" stroke-width="3.6">
                    <path d="M65.1809045,0 L76.160249,0 C76.160249,0 82.8169466,14.4914437 86.0907601,27.5353309 C89.3645736,40.579218 96.8743719,45.1388889 96.8743719,45.1388889" id="Path-15" stroke-linecap="round"></path>
                    <path d="M78.8394855,5.69114402 C78.8394855,5.69114402 76.3196353,27.7286784 53.553971,30.9371835" id="Path-16" stroke-linecap="round"></path>
                    <path d="M99.8030043,16.8771249 C99.8030043,16.8771249 86.953812,15.2890354 75.682519,27.8409379 C64.4112261,40.3928404 60.6329106,44.3783456 60.6329106,44.3783456 L25.2002542,44.6393048 L42.0391606,16.615578" id="Path-17" stroke-linecap="round"></path>
                    <path d="M68.9890026,56.8955711 L42.3720261,16.5491627" id="Path-18" stroke-linecap="round"></path>
                    <path d="M43.0552764,11.4992495 L43.0552764,16.5109592" id="Path-20"></path>
                    <ellipse id="Oval-5" cx="98.0703518" cy="44.537037" rx="20.3316583" ry="20.462963"></ellipse>
                    <ellipse id="Oval-5-Copy" cx="25.7135678" cy="44.537037" rx="20.3316583" ry="20.462963"></ellipse>
                    <path d="M39.070818,20.8232512 C39.070818,20.8232512 13.3671777,8.10149016 0.585142509,33.8318323" id="Path-21" stroke-linecap="round"></path>
                </g>
                <path d="M665,82 L791,114.5" id="Path-28" stroke-width="4"></path>
                <path d="M779.107213,117.12766 C780.906748,117.12766 788.404809,93 788.404809,93 L793.803413,98.3617021 L806.700078,100.446809 L807,111.468085 C807,111.468085 804.300698,114.446809 800.101784,116.234043 C795.90287,118.021277 794.5,113.5 794.5,113.5 C794.5,113.5 791.104111,135.595745 795.602947,143.042553 C800.101784,150.489362 789.304576,146.021277 789.304576,146.021277 C789.304576,146.021277 782.106438,135.297872 781.20667,132.021277 C780.306903,128.744681 774.008532,139.765957 758.412565,132.021277 C757.512798,133.212766 751.814271,138.574468 755.413341,141.851064 C759.01241,145.12766 761.111867,149 756.912953,149 C752.714039,149 744.616133,146.319149 747.315435,138.87234 C750.014737,131.425532 750.614582,122.489362 750.614582,122.489362 L748.515125,117.723404 C748.515125,117.723404 734.41877,121.595745 735.018615,108.787234 C735.61846,95.9787234 746.115745,96.5744681 746.115745,96.5744681 C746.115745,96.5744681 729.919934,112.659574 760.512022,115.042553 C791.104111,117.425532 777.307679,117.12766 779.107213,117.12766 Z" id="Path-29" stroke-width="4"></path>
                <path d="M676,170 L882.021844,170" id="Path-30-Copy-3" stroke-width="4" stroke-linecap="round"></path>
                <ellipse id="Oval-2" stroke-width="4" cx="592" cy="175" rx="7" ry="4"></ellipse>
                <path d="M562,233.5 C562,233.5 548.5,239.5 581,252.5 C581.5,254.5 593.5,258.5 589,263 C584.5,267.5 593.5,265 599,259.5 C604.5,254 589.5,243 589.5,243" id="Path-19" stroke-width="4"></path>
            </g>
        </g>
    </g>
</svg>