<?xml version="1.0" encoding="UTF-8" standalone="no"?>
<svg width="1029px" height="157px" viewBox="0 0 1029 157" version="1.1" xmlns="http://www.w3.org/2000/svg" xmlns:xlink="http://www.w3.org/1999/xlink">
    <!-- Generator: Sketch 41.1 (35376) - http://www.bohemiancoding.com/sketch -->
    <title>sky</title>
    <desc>Created with Sketch.</desc>
    <defs></defs>
    <g id="community_page" stroke="none" stroke-width="1" fill="none" fill-rule="evenodd">
        <g id="community_page2-copy" transform="translate(-94.000000, -260.000000)" stroke="#8BC34A">
            <g id="sky" transform="translate(97.000000, 221.000000)">
                <g id="Group-8" transform="translate(765.000000, 61.000000)" stroke-width="4">
                    <path d="M102.965829,36.4066859 C104.604276,36.1391204 106.285891,36 108,36 C125.120827,36 139,49.8791728 139,67 C139,84.1208272 125.120827,98 108,98 C90.8791728,98 77,84.1208272 77,67 C77,66.5756285 77.0085272,66.1532487 77.0254196,65.7330225 L85.3243866,65.7330225 C96.3515947,65.7330225 105.290913,56.7963188 105.290913,45.7669208 C105.290913,42.3844825 104.450044,39.1984911 102.965829,36.4066859 Z" id="Combined-Shape"></path>
                    <path d="M81.9260886,25.9038468 L85.0495755,25.9038468 C96.0704184,25.9038468 105,34.8796764 105,45.9519234 C105,57.0266049 96.0678907,66 85.0495755,66 L19.9504245,66 C8.9295816,66 0,57.0241704 0,45.9519234 C0,45.6349641 0.00731641774,45.319726 0.0217887634,45.0063702 C0.00731910417,44.7078786 0,44.4074955 0,44.10539 C0,44.061232 0.000156494024,44.0171107 0.000468954671,43.9730267 C0.000156494904,43.9292548 0,43.8854455 0,43.8415995 C0,33.932674 7.99338592,25.9038468 17.8537272,25.9038468 L26.5793436,25.9038468 C26.0571506,24.1157557 25.7771234,22.2249865 25.7771234,20.2695893 L25.7771234,20.0922185 C25.7771234,8.99559265 34.769509,0 45.8754019,0 L62.6283034,0 C73.7282761,0 82.7265819,9.00774053 82.7265819,20.0922185 L82.7265819,20.2695893 C82.7265819,22.225539 82.4471935,24.1162108 81.9260886,25.9038468 Z" id="Combined-Shape"></path>
                    <path d="M100.019751,97.101821 C100.00663,97.3995657 100,97.6990049 100,98 C100,109.045695 108.929582,118 119.950425,118 L185.049575,118 C196.067891,118 205,109.048124 205,98 C205,86.954305 196.070418,78 185.049575,78 L136.565366,78 C132.131697,89.7124353 120.833484,98.0373344 107.595749,98.0373344 C104.982179,98.0373344 102.444213,97.7128307 100.019751,97.101821 Z" id="Combined-Shape" opacity="0.5"></path>
                </g>
                <path d="M1011.78226,57.5594409 L1013.30979,57.5594409 C1018.66277,57.5594409 1023,61.9113583 1023,67.2797204 C1023,72.649263 1018.66155,77 1013.30979,77 L981.690206,77 C976.337225,77 972,72.6480826 972,67.2797204 C972,67.1260432 972.003554,66.9732005 972.010583,66.8212704 C972.003555,66.6765472 972,66.5309069 972,66.3844315 C972,66.3630216 972.000076,66.3416295 972.000228,66.3202554 C972.000076,66.2990326 972,66.2777918 972,66.2565331 C972,61.4522056 975.882502,57.5594409 980.67181,57.5594409 L984.919469,57.5594409 C984.659719,56.6798135 984.520317,55.7485535 984.520317,54.7846807 C984.520317,49.3807508 988.903311,45 994.311536,45 L1002.39026,45 C1007.7978,45 1012.18148,49.3795626 1012.18148,54.7846807 C1012.18148,55.7484984 1012.04206,56.6797682 1011.78226,57.5594409 Z" id="Combined-Shape-Copy-2" stroke-width="6" opacity="0.25" transform="translate(997.500000, 61.000000) scale(-1, 1) translate(-997.500000, -61.000000) "></path>
                <path d="M67.0839,160.178665 L69.6596523,160.178665 C78.6862474,160.178665 86,167.517192 86,176.569725 C86,185.624247 78.6841771,192.960784 69.6596523,192.960784 L16.3403477,192.960784 C7.31375255,192.960784 0,185.622257 0,176.569725 C0,176.310583 0.00599249453,176.052848 0.0178460348,175.796652 C0.00599469484,175.552609 0,175.307019 0,175.060022 C0,175.023919 0.000128176058,174.987846 0.000384096206,174.951803 C0.000128176779,174.916016 0,174.880198 0,174.84435 C0,166.742935 6.5469637,160.178665 14.6230527,160.178665 L21.7851022,160.178665 C21.3475272,158.695372 21.1126915,157.125012 21.1126915,155.499658 C21.1126915,146.387148 28.5036224,139 37.6069594,139 L51.2627421,139 C60.3722747,139 67.75701,146.385145 67.75701,155.499658 C67.75701,157.124919 67.5219008,158.695295 67.0839,160.178665 Z" id="Combined-Shape-Copy-3" stroke-width="6" opacity="0.25" transform="translate(43.000000, 165.980392) scale(-1, 1) translate(-43.000000, -165.980392) "></path>
                <path d="M239.0839,93.178665 L241.659652,93.178665 C250.686247,93.178665 258,100.517192 258,109.569725 C258,118.624247 250.684177,125.960784 241.659652,125.960784 L188.340348,125.960784 C179.313753,125.960784 172,118.622257 172,109.569725 C172,109.310583 172.005992,109.052848 172.017846,108.796652 C172.005995,108.552609 172,108.307019 172,108.060022 C172,108.023919 172.000128,107.987846 172.000384,107.951803 C172.000128,107.916016 172,107.880198 172,107.84435 C172,99.7429349 178.546964,93.178665 186.623053,93.178665 L193.785102,93.178665 C193.347527,91.6953718 193.112692,90.1250118 193.112692,88.4996576 C193.112692,79.3871483 200.503622,72 209.606959,72 L223.262742,72 C232.372275,72 239.75701,79.3851447 239.75701,88.4996576 C239.75701,90.1249188 239.521901,91.6952954 239.0839,93.178665 Z" id="Combined-Shape-Copy-4" stroke-width="6" opacity="0.75" transform="translate(215.000000, 98.980392) scale(-1, 1) translate(-215.000000, -98.980392) "></path>
                <path d="M339,113.52447 C339,113.52447 340.5,107.52447 349,114.02447 C357.5,120.52447 353,116.02447 361,112.02447" id="Path-5" stroke-width="2" stroke-linecap="round"></path>
                <path d="M839,42.5244704 C839,42.5244704 840.5,36.5244704 849,43.0244704 C857.5,49.5244704 853,45.0244704 861,41.0244704" id="Path-5-Copy" stroke-width="2" stroke-linecap="round"></path>
                <path d="M859,62.5244704 C859,62.5244704 860.5,56.5244704 869,63.0244704 C877.5,69.5244704 873,65.0244704 881,61.0244704" id="Path-5-Copy-3" stroke-width="2" stroke-linecap="round"></path>
                <path d="M765,193.201222 C765,193.201222 765.75,190.346235 770,193.439137 C774.25,196.532039 772,194.390799 776,192.487475" id="Path-5-Copy-2" stroke-linecap="round"></path>
            </g>
        </g>
    </g>
</svg>