<?xml version="1.0" standalone="no"?>
<!DOCTYPE svg PUBLIC "-//W3C//DTD SVG 20010904//EN"
 "http://www.w3.org/TR/2001/REC-SVG-20010904/DTD/svg10.dtd">
<svg version="1.0" xmlns="http://www.w3.org/2000/svg"
 width="310.000000pt" height="310.000000pt" viewBox="0 0 310.000000 310.000000"
 preserveAspectRatio="xMidYMid meet">
<metadata>
Created by potrace 1.11, written by Peter Selinger 2001-2013
</metadata>
<g transform="translate(0.000000,310.000000) scale(0.100000,-0.100000)"
fill="#000000" stroke="none">
<path d="M2428 2785 c-220 -64 -329 -248 -330 -556 0 -64 3 -125 6 -135 3 -11
8 -35 10 -54 24 -192 183 -355 366 -376 226 -26 407 57 485 221 29 62 47 152
31 158 -6 2 -58 3 -116 3 l-105 -2 -7 -41 c-17 -103 -89 -155 -215 -155 -54
-1 -125 28 -150 60 -57 72 -72 150 -69 347 2 136 6 168 24 215 39 99 97 141
199 145 91 3 193 -48 193 -96 0 -10 5 -21 10 -24 6 -3 10 -17 10 -30 0 -53 4
-55 125 -55 127 0 118 -7 98 75 -4 17 -8 35 -8 40 -1 21 -51 108 -82 145 -29
33 -126 99 -158 107 -5 1 -30 7 -55 14 -79 19 -183 17 -262 -6z"/>
<path d="M102 2233 l3 -558 113 -1 112 0 1 365 c0 271 3 360 11 344 6 -13 15
-23 20 -23 4 0 8 -5 8 -11 0 -6 13 -31 30 -56 16 -24 30 -46 30 -47 0 -2 59
-100 131 -217 72 -118 143 -234 157 -259 57 -101 49 -97 175 -96 l112 1 1 558
1 557 -114 0 c-83 0 -113 -3 -114 -12 0 -7 -1 -172 -2 -366 0 -198 -4 -347 -9
-340 -9 14 -173 283 -331 543 l-103 170 -117 3 -117 3 2 -558z"/>
<path d="M1090 2786 c0 -2 14 -30 31 -62 17 -33 94 -183 171 -334 78 -151 145
-281 151 -287 5 -7 10 -103 11 -220 l1 -208 115 0 115 0 0 200 1 200 63 125
c61 119 245 478 262 510 5 8 15 30 24 48 l16 32 -126 0 -126 0 -18 -42 c-10
-24 -39 -87 -65 -141 -25 -55 -46 -100 -46 -102 0 -1 -20 -45 -44 -96 -24 -52
-46 -101 -48 -109 -5 -14 -20 14 -107 203 -17 37 -44 95 -60 130 -16 34 -38
83 -50 110 l-21 47 -125 0 c-69 0 -125 -2 -125 -4z"/>
<path d="M117 1432 c-16 -3 -17 -47 -17 -563 l0 -559 375 0 375 0 0 93 0 93
-257 0 -258 -1 -2 151 -1 151 206 0 c114 1 214 2 222 2 22 1 22 169 0 175 -8
3 -98 5 -200 5 -102 0 -195 0 -207 0 -22 1 -22 3 -20 134 l2 132 240 1 c132 1
247 2 256 3 14 1 17 16 18 91 1 50 -2 90 -6 91 -22 3 -712 4 -726 1z"/>
<path d="M1054 1431 c-2 -2 -4 -256 -4 -564 l0 -559 233 4 c152 3 244 9 267
17 57 21 122 52 136 64 7 7 26 23 44 36 40 31 112 133 134 191 27 69 42 166
41 260 -3 192 -47 305 -160 415 -66 65 -138 105 -224 125 -50 12 -456 21 -467
11z m459 -209 c109 -48 160 -159 157 -342 -2 -153 -23 -236 -76 -298 -54 -64
-111 -84 -239 -86 l-70 0 -2 364 c-1 201 0 370 2 376 6 20 175 9 228 -14z"/>
<path d="M2128 1420 c-6 -29 -1 -775 6 -814 20 -123 132 -256 234 -282 214
-52 381 -29 487 68 17 16 33 28 38 28 4 0 7 7 7 15 0 8 5 15 10 15 6 0 10 7
10 15 0 8 3 15 8 15 11 0 33 55 48 125 6 31 13 789 6 815 -2 12 -21 15 -100
14 -53 -1 -104 -2 -113 -3 -15 -1 -17 -39 -17 -393 -1 -216 -3 -400 -4 -408
-22 -102 -95 -153 -208 -146 -102 7 -163 59 -176 151 -4 28 -7 218 -7 423 0
204 -3 372 -6 373 -3 1 -54 2 -113 3 -88 1 -108 -2 -110 -14z"/>
</g>
</svg>
