<?xml version="1.0" encoding="UTF-8" standalone="no"?>
<svg width="789px" height="351px" viewBox="0 0 789 351" version="1.1" xmlns="http://www.w3.org/2000/svg" xmlns:xlink="http://www.w3.org/1999/xlink">
    <!-- Generator: Sketch 40.3 (33839) - http://www.bohemiancoding.com/sketch -->
    <title>organizations-illustration</title>
    <desc>Created with Sketch.</desc>
    <defs>
        <path d="M49.9849524,10.3311906 C50.5923033,10.5730642 51.1868805,10.84016 51.7673912,11.1311812 C49.493797,13.6362693 53.9736277,14.2304745 58.4659662,18.7228129 C62.3808957,22.6377424 62.1072433,26.1102226 63.5803364,25.4158588 C64.1372413,27.3941419 64.4351433,29.4805623 64.4351433,31.6361076 L64.4351433,46.538261 C64.4351433,59.1982471 54.1744841,69.4611937 41.511102,69.4611937 C28.8505035,69.4611937 18.5870606,59.1904879 18.5870606,46.538261 L18.5870606,31.6361076 C18.5870606,27.0765131 19.9180091,22.8278475 22.2128034,19.2575859 C26.9525333,17.3962731 36.9134859,16.7250351 43.6744022,14.1167055 C47.0452566,12.8162458 48.9383187,11.4889823 49.9849524,10.3311906 Z" id="path-1"></path>
        <mask id="mask-2" maskContentUnits="userSpaceOnUse" maskUnits="objectBoundingBox" x="0" y="0" width="45.8480828" height="59.1300031" fill="white">
            <use xlink:href="#path-1"></use>
        </mask>
        <path d="M216.022949,22.9223272 C216.022949,10.2626755 226.278076,1.88319816e-15 238.94699,1.88319816e-15 L238.94699,1.88319816e-15 L238.94699,1.88319816e-15 C251.607588,1.88319816e-15 261.871031,10.2637033 261.871031,22.9223272 L261.871031,36.5859362 C261.871031,49.2455879 251.610372,59.5082634 238.94699,59.5082634 L238.94699,59.5082634 C226.286391,59.5082634 216.022949,49.24456 216.022949,36.5859362 L216.022949,22.9223272 Z" id="path-3"></path>
        <mask id="mask-4" maskContentUnits="userSpaceOnUse" maskUnits="objectBoundingBox" x="0" y="0" width="45.8480828" height="59.5082634" fill="white">
            <use xlink:href="#path-3"></use>
        </mask>
        <rect id="path-5" x="22.3044727" y="11.5710512" width="45.8480828" height="59.5082634" rx="22.9240414"></rect>
        <mask id="mask-6" maskContentUnits="userSpaceOnUse" maskUnits="objectBoundingBox" x="0" y="0" width="45.8480828" height="59.5082634" fill="white">
            <use xlink:href="#path-5"></use>
        </mask>
        <polygon id="path-7" points="21.0653353 112.404497 40.8915333 112.404497 40.8915333 127.934066 31.2501006 129.761074 21.0653353 127.934066"></polygon>
        <mask id="mask-8" maskContentUnits="userSpaceOnUse" maskUnits="objectBoundingBox" x="0" y="0" width="19.826198" height="17.3565768" fill="white">
            <use xlink:href="#path-7"></use>
        </mask>
        <path d="M46.5168709,3.45807181 C48.0096015,3.79931008 49.4466719,4.28668229 50.8122361,4.90434862 C50.9542393,5.71509891 51.9889806,7.40251087 50.9836143,8.40787713 C48.3291217,11.0623698 52.9019644,11.572812 57.4867581,16.1576057 C62.0715518,20.7423994 60.8919521,24.7198574 63.5464448,22.0653647 C63.6761421,21.9356674 63.7908316,21.7845011 63.8915585,21.6156437 C64.1368197,22.9580911 64.2649435,24.3415039 64.2649435,25.7549 L64.2649435,40.5663591 C64.2649435,53.1978663 54.0313869,63.4377261 41.401454,63.4377261 C28.7742974,63.4377261 18.5379645,53.1997905 18.5379645,40.5663591 L18.5379645,25.7549 C18.5379645,23.9026814 18.758004,22.1018874 19.1733732,20.3772627 C20.5624392,21.7929421 23.1248795,22.2783038 23.1248795,19.2375453 C23.1248795,15.0661594 32.3155793,15.0837625 40.0449544,11.5652891 C47.7743295,8.04681581 46.3063474,4.33150854 46.3063474,4.33150854 C46.3063474,4.33150854 46.4789348,3.96968267 46.5168709,3.45807181 Z" id="path-9"></path>
        <mask id="mask-10" maskContentUnits="userSpaceOnUse" maskUnits="objectBoundingBox" x="0" y="0" width="45.726979" height="59.9796543" fill="white">
            <use xlink:href="#path-9"></use>
        </mask>
        <path d="M553.689394,249.873239 L569.558587,249.873239 C580.294347,249.873239 589,241.171168 589,230.43662 C589,219.699711 580.295783,211 569.558587,211 L549.441413,211 C538.705653,211 530,219.702071 530,230.43662 C530,239.096983 535.662959,246.431947 543.487999,248.945211 L543.140909,257 L553.689394,249.873239 Z" id="path-11"></path>
        <mask id="mask-12" maskContentUnits="userSpaceOnUse" maskUnits="objectBoundingBox" x="0" y="0" width="59" height="46" fill="white">
            <use xlink:href="#path-11"></use>
        </mask>
        <path d="M753.689394,149.71831 L769.148643,149.71831 C780.103223,149.71831 789,140.827063 789,129.859155 C789,118.888835 780.112245,110 769.148643,110 L749.851357,110 C738.896777,110 730,118.891247 730,129.859155 C730,138.603897 735.647387,146.026039 743.491899,148.677628 L743.140909,157 L753.689394,149.71831 Z" id="path-13"></path>
        <mask id="mask-14" maskContentUnits="userSpaceOnUse" maskUnits="objectBoundingBox" x="0" y="0" width="59" height="47" fill="white">
            <use xlink:href="#path-13"></use>
        </mask>
        <path d="M23.6893939,171.71831 L39.1486432,171.71831 C50.1032229,171.71831 59,162.827063 59,151.859155 C59,140.888835 50.1122448,132 39.1486432,132 L19.8513568,132 C8.89677706,132 0,140.891247 0,151.859155 C0,160.603897 5.64738703,168.026039 13.4918995,170.677628 L13.1409091,179 L23.6893939,171.71831 Z" id="path-15"></path>
        <mask id="mask-16" maskContentUnits="userSpaceOnUse" maskUnits="objectBoundingBox" x="0" y="0" width="59" height="47" fill="white">
            <use xlink:href="#path-15"></use>
        </mask>
        <path d="M140.863636,115.887324 L152.058367,115.887324 C159.757527,115.887324 166,109.644534 166,101.943662 C166,94.2410969 159.758118,88 152.058367,88 L137.941633,88 C130.242473,88 124,94.2427901 124,101.943662 C124,108.130747 128.027327,113.374877 133.602594,115.198937 L133.354545,121 L140.863636,115.887324 Z" id="path-17"></path>
        <mask id="mask-18" maskContentUnits="userSpaceOnUse" maskUnits="objectBoundingBox" x="0" y="0" width="42" height="33" fill="white">
            <use xlink:href="#path-17"></use>
        </mask>
        <path d="M239.469697,33.8028169 L250.09989,33.8028169 C259.429806,33.8028169 267,26.2357986 267,16.9014085 C267,7.56496594 259.433563,-3.55271368e-15 250.09989,-3.55271368e-15 L237.90011,-3.55271368e-15 C228.570194,-3.55271368e-15 221,7.56701831 221,16.9014085 C221,23.9846516 225.355047,30.0482782 231.532811,32.5624523 L231.245455,40 L239.469697,33.8028169 Z" id="path-19"></path>
        <mask id="mask-20" maskContentUnits="userSpaceOnUse" maskUnits="objectBoundingBox" x="0" y="0" width="46" height="40" fill="white">
            <use xlink:href="#path-19"></use>
        </mask>
        <path d="M437.469697,185.802817 L448.09989,185.802817 C457.429806,185.802817 465,178.235799 465,168.901408 C465,159.564966 457.433563,152 448.09989,152 L435.90011,152 C426.570194,152 419,159.567018 419,168.901408 C419,175.984652 423.355047,182.048278 429.532811,184.562452 L429.245455,192 L437.469697,185.802817 Z" id="path-21"></path>
        <mask id="mask-22" maskContentUnits="userSpaceOnUse" maskUnits="objectBoundingBox" x="0" y="0" width="46" height="40" fill="white">
            <use xlink:href="#path-21"></use>
        </mask>
        <path d="M589.469697,166.802817 L600.09989,166.802817 C609.429806,166.802817 617,159.235799 617,149.901408 C617,140.564966 609.433563,133 600.09989,133 L587.90011,133 C578.570194,133 571,140.567018 571,149.901408 C571,156.984652 575.355047,163.048278 581.532811,165.562452 L581.245455,173 L589.469697,166.802817 Z" id="path-23"></path>
        <mask id="mask-24" maskContentUnits="userSpaceOnUse" maskUnits="objectBoundingBox" x="0" y="0" width="46" height="40" fill="white">
            <use xlink:href="#path-23"></use>
        </mask>
    </defs>
    <g id="mock" stroke="none" stroke-width="1" fill="none" fill-rule="evenodd">
        <g id="nyc_edu" transform="translate(-206.000000, -2758.000000)">
            <g id="organizations-illustration" transform="translate(206.000000, 2759.000000)">
                <g id="technologist-copy" transform="translate(275.000000, 1.000000)">
                    <g id="Group-2">
                        <g id="Group-6">
                            <g id="Group-9">
                                <rect id="Rectangle-21" stroke="#212121" stroke-width="3" x="0" y="79.3443512" width="83.0222039" height="59.5082634" rx="29.7541317"></rect>
                                <use id="Combined-Shape" stroke="#212121" mask="url(#mask-2)" stroke-width="6" xlink:href="#path-1"></use>
                                <polyline id="Path-27" stroke="#212121" stroke-width="3" points="38.6179663 79.3443512 32.8552575 90.393793 19.4131522 79.3975121"></polyline>
                                <polyline id="Path-27-Copy" stroke="#212121" stroke-width="3" points="44.1958996 79.3443512 49.9586084 90.393793 63.4007137 79.3975121"></polyline>
                                <path d="M64.0959134,37.9551698 C64.0959134,37.9551698 68.9284281,35.5918859 68.9284281,39.1864504 C68.9284281,42.7810149 67.8109053,49.1650293 64.0220976,49.1650293" id="Path-28" stroke="#212121" stroke-width="3" stroke-linecap="round"></path>
                                <path d="M14.5304185,37.9551698 C14.5304185,37.9551698 19.3629332,35.5918859 19.3629332,39.1864504 C19.3629332,42.7810149 18.2454104,49.1650293 14.4566027,49.1650293" id="Path-28-Copy" stroke="#212121" stroke-width="3" stroke-linecap="round" transform="translate(16.909768, 43.178847) scale(-1, 1) translate(-16.909768, -43.178847) "></path>
                                <path d="M30.9511264,70.3106735 C23.1536368,68.6736011 14.893568,65.2277975 6.47690483,59.1265457 C4.14142747,57.8310638 5.19233529,57.2916558 5.19233529,57.2916558 C5.19233529,57.2916558 10.8378304,47.4367403 10.8378304,31.6189971 C10.8378304,15.8012539 27.4483289,-5.10362539 48.517777,1.12777776 C69.5872251,7.35918091 70.5355497,25.4180626 74.4485286,38.899876 C78.3615075,52.3816893 73.109105,57.0727329 73.109105,57.0727329 C73.109105,57.0727329 69.5823974,68.5176791 50.0660897,71.0319319" id="Path-31" stroke="#212121" stroke-width="3"></path>
                                <ellipse id="Oval" fill="#212121" cx="35.9349838" cy="35.9529091" rx="2.47827474" ry="2.47951097"></ellipse>
                                <ellipse id="Oval-Copy-4" fill="#212121" cx="48.3263575" cy="35.9529091" rx="2.47827474" ry="2.47951097"></ellipse>
                                <path d="M52.7477639,50.829975 C52.7872624,51.062792 52.8075111,51.2991412 52.8075111,51.5384067 C52.8075111,55.2553389 47.9209058,58.2685079 41.8929727,58.2685079 C35.8650396,58.2685079 30.9784343,55.2553389 30.9784343,51.5384067 C30.9784343,51.2991412 30.998683,51.062792 31.0381815,50.829975 L52.7477639,50.829975 Z" id="Combined-Shape" stroke="#212121" stroke-width="3"></path>
                                <path d="M49.9785407,65.7070408 L49.9785407,78.5178475" id="Path-34-Copy-3" stroke="#212121" stroke-width="3"></path>
                                <path d="M31.3914801,65.7070408 L31.3914801,78.5178475" id="Path-34-Copy-2" stroke="#212121" stroke-width="3"></path>
                            </g>
                        </g>
                    </g>
                    <g id="Group-4" transform="translate(171.827049, 113.644253)">
                        <path d="M193.30543,96.4943021 C193.30543,81.088596 205.79143,68.5998036 221.195944,68.5998036 L225.720121,68.5998036 C225.720121,68.5998036 225.327966,81.5784939 241.017962,81.3847821 C256.707959,81.1910703 254.98329,68.5998036 254.98329,68.5998036 L257.106079,68.5998036 C272.512348,68.5998036 285.001596,81.0852087 285.001596,96.4943021 L285.001596,124.388801 L193.30543,124.388801 L193.30543,96.4943021 Z" id="Combined-Shape-Copy-5" stroke="#212121" stroke-width="3"></path>
                        <use id="Combined-Shape-Copy-3" stroke="#212121" mask="url(#mask-4)" stroke-width="6" xlink:href="#path-3"></use>
                        <path d="M261.477108,26.5948134 C261.477108,26.5948134 264.762352,24.2315295 264.762352,27.826094 C264.762352,31.4206585 264.002637,37.8046728 261.426926,37.8046728" id="Path-28-Copy-5" stroke="#212121" stroke-width="3" stroke-linecap="round"></path>
                        <path d="M213.15075,26.5948134 C213.15075,26.5948134 216.435994,24.2315295 216.435994,27.826094 C216.435994,31.4206585 215.676279,37.8046728 213.100569,37.8046728" id="Path-28-Copy-6" stroke="#212121" stroke-width="3" stroke-linecap="round" transform="translate(214.768282, 31.818490) scale(-1, 1) translate(-214.768282, -31.818490) "></path>
                        <ellipse id="Oval-Copy-8" fill="#212121" cx="232.574811" cy="27.4534006" rx="1.85870606" ry="1.65300732"></ellipse>
                        <ellipse id="Oval-Copy-7" fill="#212121" cx="246.205322" cy="27.4534006" rx="1.85870606" ry="1.65300732"></ellipse>
                        <path d="M232.266055,37.0219561 L247.122392,36.9008862 C247.122392,36.9008862 246.045408,44.950822 238.039419,44.950822" id="Path-32-Copy" stroke="#212121" stroke-width="3"></path>
                        <g id="Group-10" transform="translate(0.000000, 96.287676)">
                            <path d="M0,107.032224 C0,90.5994705 13.3246199,77.278092 29.7620606,77.278092 L32.4146907,77.278092 L47.7125323,90.9154024 L61.6778604,77.278092 L61.9373704,77.278092 C78.3726991,77.278092 91.6961655,90.5958574 91.6961655,107.032224 L91.6961655,136.786355 L0,136.786355 L0,107.032224 Z" id="Combined-Shape" stroke="#212121" stroke-width="3"></path>
                            <path d="M30.5646823,14.9818618 C31.0030888,15.1005947 31.4642486,15.1639453 31.9401972,15.1639453 C33.8996415,15.1639453 35.6084271,14.0902125 36.5108234,12.4987547 C37.1704971,12.797525 37.9028855,12.9638608 38.6741043,12.9638608 C39.6921765,12.9638608 40.642582,12.6740013 41.4473737,12.1722686 C42.4087856,13.2445381 43.8044061,13.9191082 45.3575023,13.9191082 C47.2209393,13.9191082 48.8576791,12.9480174 49.7897415,11.4840541 C49.7660804,11.6445962 49.7538248,11.8088528 49.7538248,11.9759732 C49.7538248,13.8224632 51.2499544,15.3193391 53.0955238,15.3193391 C54.9410932,15.3193391 56.4372228,13.8224632 56.4372228,11.9759732 C56.4372228,10.1294832 54.9410932,8.63260729 53.0955238,8.63260729 C52.0230242,8.63260729 51.0685311,9.13810513 50.4570775,9.92395556 C50.5561803,9.52068699 50.6087435,9.09910871 50.6087435,8.6652475 C50.6087435,5.76362036 48.2576827,3.4113868 45.3575023,3.4113868 C44.3394302,3.4113868 43.3890246,3.70124626 42.5842329,4.20297899 C41.622821,3.13070953 40.2272005,2.4561394 38.6741043,2.4561394 C36.7146601,2.4561394 35.0058745,3.52987221 34.1034782,5.12133007 C33.4438045,4.82255971 32.7114161,4.65622393 31.9401972,4.65622393 C29.0400168,4.65622393 26.688956,7.00845749 26.688956,9.91008464 C26.688956,10.384463 26.7517952,10.8441572 26.8695996,11.2812893 C25.2003102,11.4675376 23.9024021,12.884069 23.9024021,14.6038943 C23.9024021,16.4503843 25.3985316,17.9472602 27.244101,17.9472602 C28.9619437,17.9472602 30.3770404,16.6504041 30.5646823,14.9818618 Z" id="Combined-Shape-Copy" stroke="#212121" stroke-width="3" transform="translate(40.169812, 10.201700) rotate(-8.000000) translate(-40.169812, -10.201700) "></path>
                            <use id="Combined-Shape-Copy-2" stroke="#212121" mask="url(#mask-6)" stroke-width="6" xlink:href="#path-5"></use>
                            <path d="M67.7822664,38.1658646 C67.7822664,38.1658646 72.6147811,35.8025807 72.6147811,39.3971452 C72.6147811,42.9917097 71.4972583,49.375724 67.7084506,49.375724" id="Path-28-Copy-3" stroke="#212121" stroke-width="3" stroke-linecap="round"></path>
                            <path d="M18.2167715,38.1658646 C18.2167715,38.1658646 23.0492862,35.8025807 23.0492862,39.3971452 C23.0492862,42.9917097 21.9317634,49.375724 18.1429557,49.375724" id="Path-28-Copy-2" stroke="#212121" stroke-width="3" stroke-linecap="round" transform="translate(20.596121, 43.389542) scale(-1, 1) translate(-20.596121, -43.389542) "></path>
                            <ellipse id="Oval-Copy-6" fill="#212121" cx="38.4132585" cy="32.6468945" rx="2.47827474" ry="2.47951097"></ellipse>
                            <ellipse id="Oval-Copy-5" fill="#212121" cx="50.8046323" cy="32.6468945" rx="2.47827474" ry="2.47951097"></ellipse>
                            <path d="M38.5475791,48.5930073 L53.4039165,48.4719374 C53.4039165,48.4719374 52.3269319,56.5218732 44.3209428,56.5218732" id="Path-32" stroke="#212121" stroke-width="3"></path>
                            <use id="Rectangle-2" stroke="#212121" mask="url(#mask-8)" stroke-width="6" xlink:href="#path-7"></use>
                            <path d="M55.7611817,68.1865518 L55.7611817,83.8901213" id="Path-34-Copy-5" stroke="#212121" stroke-width="3"></path>
                            <path d="M36.7610754,68.1865518 L36.7610754,80.5841066" id="Path-34-Copy-4" stroke="#212121" stroke-width="3"></path>
                        </g>
                    </g>
                </g>
                <g id="Group-3" transform="translate(558.000000, 130.000000)"></g>
                <g id="Group-5" transform="translate(71.000000, 143.000000)">
                    <g id="technologist">
                        <g id="Group" transform="translate(211.744750, 0.000000)"></g>
                        <g id="Group-8" transform="translate(0.000000, 7.826732)" stroke="#212121">
                            <rect id="Rectangle-21" stroke-width="3" x="0" y="68.3809255" width="82.8029079" height="59.3183932" rx="29.6591966"></rect>
                            <use id="Combined-Shape" mask="url(#mask-10)" stroke-width="6" xlink:href="#path-9"></use>
                            <polyline id="Path-27" stroke-width="3" points="38.3117932 68.3809255 32.5643061 79.3951125 19.157707 68.4339168"></polyline>
                            <ellipse id="Oval-Copy" stroke-width="1.5" cx="41.401454" cy="87.5358233" rx="1.85379645" ry="1.85369979"></ellipse>
                            <ellipse id="Oval-Copy-3" stroke-width="1.5" cx="41.401454" cy="112.251821" rx="1.85379645" ry="1.85369979"></ellipse>
                            <ellipse id="Oval-Copy-2" stroke-width="1.5" cx="41.401454" cy="99.8938219" rx="1.85379645" ry="1.85369979"></ellipse>
                            <polyline id="Path-27-Copy" stroke-width="3" points="43.8749929 68.3809255 49.62248 79.3951125 63.0290792 68.4339168"></polyline>
                            <path d="M34.8716677,37.8309209 C34.8716677,37.8309209 38.3117932,33.8209736 38.3117932,31.1045221 C38.3117932,29.3541858 36.7971844,26.3637303 36.7971844,26.3637303 L20.6624249,27.4037821 C20.6624249,27.4037821 19.7738288,29.7803912 19.7738288,31.1045221 C19.7738288,33.8241517 23.2213229,37.8364838 23.2213229,37.8364838 L34.8716677,37.8309209 Z" id="Oval-8" stroke-width="3"></path>
                            <path d="M59.5889536,37.8309209 C59.5889536,37.8309209 63.0290792,33.8209736 63.0290792,31.1045221 C63.0290792,29.3541858 61.5144703,26.3637303 61.5144703,26.3637303 L45.3797109,27.4037821 C45.3797109,27.4037821 44.4911147,29.7803912 44.4911147,31.1045221 C44.4911147,33.8241517 47.9386089,37.8364838 47.9386089,37.8364838 L59.5889536,37.8309209 Z" id="Oval-8-Copy" stroke-width="3" transform="translate(53.760097, 32.100107) scale(-1, 1) translate(-53.760097, -32.100107) "></path>
                            <path d="M63.8956324,31.8650913 C63.8956324,31.8650913 68.7153825,29.5093478 68.7153825,33.0924433 C68.7153825,36.6755388 67.6008115,43.039184 63.8220116,43.039184" id="Path-28" stroke-width="3" stroke-linecap="round"></path>
                            <path d="M14.4610606,31.8650913 C14.4610606,31.8650913 19.2808106,29.5093478 19.2808106,33.0924433 C19.2808106,36.6755388 18.1662397,43.039184 14.3874397,43.039184" id="Path-28-Copy" stroke-width="3" stroke-linecap="round" transform="translate(16.834125, 37.072101) scale(-1, 1) translate(-16.834125, -37.072101) "></path>
                            <path d="M45.0556921,27.5995302 L38.3117932,27.5995302" id="Path-29" stroke-width="3"></path>
                            <path d="M55.0682673,23.891011 C57.2629309,23.891011 60.111685,20.1983012 60.3045548,18.6549964 C60.4974246,17.1116917 61.4355315,14.0483362 61.1468668,10.6547298 C60.8582021,7.26112332 59.7666724,4.28452773 58.9533993,2.92647217 C57.9470165,1.24594953 57.9185129,5.3504463 55.8423067,5.3504463 C52.0882872,5.3504463 54.9608382,8.94487152 54.9608382,15.428749 C54.9608382,21.9126264 51.3142477,23.891011 55.0682673,23.891011 Z" id="Oval-9" stroke-width="3" transform="translate(57.286544, 13.206695) rotate(-45.000000) translate(-57.286544, -13.206695) "></path>
                            <path d="M47.5422117,4.33150854 C47.5422117,4.33150854 49.0101938,8.04681581 41.2808187,11.5652891 C33.5514436,15.0837625 24.3607438,15.0661594 24.3607438,19.2375453 C24.3607438,23.4089312 19.5384837,20.9445063 19.5384837,18.5456927 C19.5384837,16.1468791 22.8827755,2.3050258 36.5667432,0.479110968 C50.2507108,-1.34680386 47.5422117,4.33150854 47.5422117,4.33150854 Z" id="Path-30" stroke-width="3"></path>
                            <path d="M34.6042003,49.8562741 C34.6042003,49.8562741 44.5431405,55.6931814 51.4943457,45.3126615" id="Path-33" stroke-width="3" stroke-linecap="round"></path>
                            <path d="M50.052504,60.5541931 L50.052504,67.1451257" id="Path-34" stroke-width="4.5"></path>
                            <path d="M31.5145396,60.5541931 L31.5145396,67.1451257" id="Path-34-Copy" stroke-width="4.5"></path>
                        </g>
                    </g>
                </g>
                <polyline id="Path-34-Copy-7" stroke="#212121" stroke-width="3" points="697 171 697 183.4 703 185"></polyline>
                <polyline id="Path-34-Copy-6" stroke="#212121" stroke-width="3" points="677 172 677 184.1875 673 185"></polyline>
                <path d="M690,122 C690,122 689.384615,134.987253 666,133.939894" id="Path-2" stroke="#212121" stroke-width="3" stroke-linecap="round"></path>
                <path d="M705,122 C705,122 702.364865,133.512195 690,138" id="Path-2-Copy" stroke="#212121" stroke-width="3" stroke-linecap="round" transform="translate(697.500000, 130.000000) scale(-1, 1) translate(-697.500000, -130.000000) "></path>
                <g id="Group-7" transform="translate(697.000000, 133.000000)" stroke-width="3" stroke="#212121">
                    <polyline id="Path-3" stroke-linecap="round" points="13.1756757 21.875 14.7972973 43.9583333 0 44.7916667"></polyline>
                    <path d="M11.4427179,9.65936416 L9.63836313,0.340635844" id="Path-4"></path>
                </g>
                <g id="Group-7-Copy" transform="translate(668.500000, 155.500000) scale(-1, 1) translate(-668.500000, -155.500000) translate(661.000000, 133.000000)" stroke-width="3" stroke="#212121">
                    <polyline id="Path-3" stroke-linecap="round" points="13.1756757 21.875 14.7972973 43.9583333 0 44.7916667"></polyline>
                    <path d="M12.2535288,9.65936416 L10.4491739,0.340635844" id="Path-4"></path>
                </g>
                <use id="Combined-Shape" stroke="#212121" mask="url(#mask-12)" stroke-width="6" xlink:href="#path-11"></use>
                <use id="Combined-Shape-Copy-4" stroke="#212121" mask="url(#mask-14)" stroke-width="6" xlink:href="#path-13"></use>
                <use id="Combined-Shape-Copy-6" stroke="#212121" mask="url(#mask-16)" stroke-width="6" transform="translate(29.500000, 155.500000) scale(-1, 1) translate(-29.500000, -155.500000) " xlink:href="#path-15"></use>
                <use id="Combined-Shape-Copy-9" stroke="#212121" mask="url(#mask-18)" stroke-width="6" xlink:href="#path-17"></use>
                <use id="Combined-Shape-Copy-2" stroke="#212121" mask="url(#mask-20)" stroke-width="6" transform="translate(244.000000, 20.000000) scale(-1, 1) translate(-244.000000, -20.000000) " xlink:href="#path-19"></use>
                <use id="Combined-Shape-Copy-7" stroke="#212121" mask="url(#mask-22)" stroke-width="6" xlink:href="#path-21"></use>
                <use id="Combined-Shape-Copy-8" stroke="#212121" mask="url(#mask-24)" stroke-width="6" transform="translate(594.000000, 153.000000) scale(-1, 1) translate(-594.000000, -153.000000) " xlink:href="#path-23"></use>
                <circle id="Oval-3" stroke="#212121" stroke-width="3" cx="398.5" cy="36.5" r="11.5"></circle>
                <circle id="Oval-3-Copy-2" stroke="#212121" stroke-width="3" cx="373.5" cy="172.5" r="11.5"></circle>
                <ellipse id="Oval-3-Copy" stroke="#212121" stroke-width="3" cx="408.5" cy="91.5" rx="15.5" ry="15.5"></ellipse>
                <ellipse id="Oval-3-Copy-8" stroke="#212121" stroke-width="3" cx="505.5" cy="58.5" rx="11.5" ry="11.5"></ellipse>
                <ellipse id="Oval-3-Copy-7" stroke="#212121" stroke-width="3" cx="515.5" cy="112.5" rx="15.5" ry="15.5"></ellipse>
                <circle id="Oval-3-Copy-4" stroke="#212121" stroke-width="3" cx="220.5" cy="133.5" r="11.5"></circle>
                <ellipse id="Oval-3-Copy-3" stroke="#212121" stroke-width="3" cx="231.5" cy="195.5" rx="15.5" ry="15.5"></ellipse>
                <circle id="Oval-3-Copy-6" stroke="#212121" stroke-width="3" cx="320.5" cy="195.5" r="11.5"></circle>
                <ellipse id="Oval-3-Copy-5" stroke="#212121" stroke-width="3" cx="330.5" cy="256.5" rx="15.5" ry="15.5"></ellipse>
            </g>
        </g>
    </g>
</svg>